<svg xmlns="http://www.w3.org/2000/svg" width="34" height="34" viewBox="0 0 34 34">
  <path fill="#40FFD2" fill-rule="evenodd" d="M17.0001408,0 C26.3886732,0 34,7.80367119 34,17.4303927 C34,25.1289989 29.1351356,31.6603449 22.3841192,33.9677331 C21.5224012,34.1388966 21.2163941,33.5953875 21.2163941,33.131543 C21.2163941,32.5574381 21.2361002,30.6804121 21.2361002,28.3482009 C21.2361002,26.7220031 20.6927758,25.661251 20.0830139,25.1203397 C23.868549,24.6888229 27.8455144,23.2147384 27.8455144,16.5200221 C27.8455144,14.6170185 27.1859242,13.0621148 26.0958973,11.8414562 C26.2724074,11.4024348 26.8545808,9.62960786 25.9292403,7.2287003 C25.9292403,7.2287003 24.5036473,6.76023757 21.2589029,9.01538193 C19.9003105,8.6291816 18.4448768,8.43550416 17.0001408,8.42886544 C15.5554047,8.43550416 14.1010971,8.6291816 12.7450383,9.01538193 C9.49635272,6.76023757 8.06878907,7.2287003 8.06878907,7.2287003 C7.14570068,9.62960786 7.72759263,11.4024348 7.90410267,11.8414562 C6.8166094,13.0621148 6.15251501,14.6170185 6.15251501,16.5200221 C6.15251501,23.1988632 10.1218795,24.6934411 13.8978431,25.1341944 C13.4116663,25.5694635 12.971095,26.3384005 12.8185138,27.4649624 C11.8484123,27.910334 9.38768785,28.6807141 7.87144691,26.0159896 C7.87144691,26.0159896 6.97256883,24.3427435 5.26546057,24.2197829 C5.26546057,24.2197829 3.60677292,24.1975576 5.14919478,25.2793803 C5.14919478,25.2793803 6.263432,25.8150962 7.0367543,27.8298034 C7.0367543,27.8298034 8.03472573,30.9407654 12.7641813,29.8863634 C12.7715007,31.3428409 12.7872656,32.7159014 12.7872656,33.131543 C12.7872656,33.5919238 12.4753467,34.131392 11.6257338,33.9700422 C4.87105775,31.6652518 0,25.1315966 0,17.4303927 C0,7.80367119 7.61245291,0 17.0001408,0 Z M6.61080692,25.075501 C6.57079329,25.1891861 6.42879005,25.2232916 6.29942269,25.1452278 C6.16764849,25.0705746 6.09363832,24.915584 6.13635964,24.8015199 C6.1754707,24.6844243 6.3177748,24.6518346 6.44924814,24.7302773 C6.5813232,24.8049305 6.65653678,24.9614369 6.61080692,25.075501 Z M7.29501695,25.7685424 C7.2120339,25.8454746 7.04981356,25.8097458 6.93974576,25.6881525 C6.8259322,25.5668475 6.80461017,25.4046271 6.88874576,25.3265424 C6.97432203,25.2496102 7.13164407,25.2856271 7.24574576,25.4069322 C7.35955932,25.529678 7.38174576,25.6907458 7.29501695,25.7685424 Z M7.9810678,26.770678 C7.87445763,26.8447288 7.70013559,26.7752881 7.59237288,26.6205593 C7.48576271,26.4658305 7.48576271,26.2802712 7.59467797,26.2059322 C7.70272881,26.1315932 7.87445763,26.1984407 7.98366102,26.3520169 C8.08998305,26.509339 8.08998305,26.6948983 7.9810678,26.770678 Z M8.9209661,27.7388136 C8.82559322,27.8439831 8.62245763,27.8157458 8.47377966,27.6722542 C8.32164407,27.5319322 8.27928814,27.3328305 8.37494915,27.227661 C8.47147458,27.1222034 8.67576271,27.1518814 8.82559322,27.2942203 C8.97657627,27.4342542 9.02267797,27.6347966 8.9209661,27.7388136 Z M10.2175763,28.3009661 C10.1755085,28.4372542 9.97986441,28.4992034 9.78277966,28.4412881 C9.58598305,28.3816441 9.45718644,28.2220169 9.49694915,28.0842881 C9.53786441,27.9471356 9.73437288,27.8825932 9.93289831,27.9445424 C10.1294068,28.0038983 10.2584915,28.1623729 10.2175763,28.3009661 Z M11.6415424,28.4052712 C11.6464407,28.5487627 11.479322,28.6677627 11.2724407,28.6703559 C11.0644068,28.6749661 10.8961356,28.5588475 10.8938305,28.417661 C10.8938305,28.2727288 11.0572034,28.1548814 11.2652373,28.1514237 C11.4721186,28.1473898 11.6415424,28.2626441 11.6415424,28.4052712 Z M12.966678,28.179661 C12.9914576,28.3196949 12.847678,28.4634746 12.6422373,28.5017966 C12.4402542,28.538678 12.2532542,28.4522373 12.2276102,28.3133559 C12.2025424,28.1698644 12.3489153,28.0260847 12.5506102,27.9889153 C12.756339,27.9531864 12.9404576,28.037322 12.966678,28.179661 Z"/>
</svg>
